<?xml version="1.0" encoding="UTF-8" standalone="no"?>
<svg width="100px" height="89px" viewBox="0 0 100 89" version="1.1" xmlns="http://www.w3.org/2000/svg" xmlns:xlink="http://www.w3.org/1999/xlink" xmlns:sketch="http://www.bohemiancoding.com/sketch/ns">
    <!-- Generator: Sketch 3.2.2 (9983) - http://www.bohemiancoding.com/sketch -->
    <title>Shape</title>
    <desc>Created with Sketch.</desc>
    <defs></defs>
    <g id="Welcome" stroke="none" stroke-width="1" fill="none" fill-rule="evenodd" sketch:type="MSPage">
        <g id="Desktop-HD" sketch:type="MSArtboardGroup" transform="translate(-670.000000, -257.000000)" fill="#ED4153">
            <g id="body" sketch:type="MSLayerGroup" transform="translate(328.000000, 218.000000)">
                <g id="Header" transform="translate(149.040000, 38.573333)" sketch:type="MSShapeGroup">
                    <path d="M250.846074,81.513336 L242.96,89.4266667 L201.162139,47.4611651 C190.225954,36.5005455 190.225954,18.7040213 201.162139,7.74340168 C210.872511,-2.012245 226.615811,-2.012245 236.350218,7.74340168 L242.96,14.3707531 L249.569782,7.76657424 C259.280154,-1.98907245 275.047489,-1.98907245 284.757861,7.76657424 C295.614921,18.647892 295.693474,36.2665541 284.993519,47.2453635 C287.829918,53.1479282 286.807507,60.4520873 281.926288,65.3442125 L258.327399,89.0246673 L250.846074,81.513336 Z M250.846074,81.513336 L284.757861,47.4843377 C284.836986,47.4050357 284.915539,47.325376 284.993519,47.2453635 C284.242001,45.6814501 283.219591,44.2159301 281.926288,42.9197376 C276.443855,37.4117423 267.541686,37.4117423 262.059253,42.9197376 L258.327399,46.648428 L254.595545,42.9066545 C249.099542,37.3986592 240.210943,37.3986592 234.72851,42.9066545 C228.553988,49.0949722 228.553988,59.1428116 234.72851,65.3311293 L250.846074,81.513336 Z" id="Shape"></path>
                </g>
            </g>
        </g>
    </g>
</svg>